<?xml version="1.0" encoding="utf-8"?>
<!-- Generator: Adobe Illustrator 24.1.2, SVG Export Plug-In . SVG Version: 6.00 Build 0)  -->
<svg version="1.1" id="Layer_1" xmlns="http://www.w3.org/2000/svg" xmlns:xlink="http://www.w3.org/1999/xlink" x="0px" y="0px"
	 viewBox="0 0 204.13 35.46" style="enable-background:new 0 0 204.13 35.46;" xml:space="preserve">
<g>
	<g>
		<path d="M10.23,5.1c4.59,9.51,8.59,19.29,11.91,29.32c0.6,1.82,3.5,1.04,2.89-0.8c-3.4-10.27-7.51-20.29-12.21-30.04
			C11.98,1.85,9.39,3.37,10.23,5.1L10.23,5.1z"/>
	</g>
</g>
<g>
	<g>
		<path d="M1.43,5.8c14.43-1.83,29.1-3.28,43.66-2.61c3.26,0.15,6.74,0.25,9.87,1.24c0.95,0.3,1.58,0.64,1.31,1.71
			c-0.31,1.24-1.51,2.27-2.47,3.02c-2.57,2.03-5.69,3.42-8.68,4.72c-3.38,1.48-6.84,2.81-10.27,4.18c-7.99,3.2-15.99,6.4-23.98,9.59
			c-1.77,0.71-1,3.61,0.8,2.89c7.76-3.11,15.53-6.21,23.29-9.32c3.69-1.48,7.4-2.92,11.05-4.49c3.27-1.41,6.59-2.92,9.44-5.09
			c2.13-1.63,4.43-4.08,3.79-7c-0.67-3.1-4.75-3.54-7.33-3.89C44.08-0.3,36.03-0.05,28.16,0.33C19.22,0.76,10.31,1.68,1.43,2.8
			C-0.46,3.04-0.49,6.05,1.43,5.8L1.43,5.8z"/>
	</g>
</g>
<g>
	<g>
		<path d="M47.13,20.01c-2.72-0.1-5.24,0.6-7.66,1.79c-1.76,0.87-6.79,2.69-5.69,5.47c1.01,2.55,5.18,0.92,6.9,0.26
			c2.12-0.82,3.97-1.97,5.76-3.35c-0.75-0.43-1.5-0.86-2.26-1.3c0.05,1.31,0.11,2.62,0.16,3.92c0.04,0.91,0.94,1.78,1.9,1.45
			c3.71-1.29,7.81-2.99,10.14-6.32c-0.68,0.18-1.37,0.36-2.05,0.54c0.74,0.42,0.78,0.37,0.52,1.14c-0.3,0.86-0.65,1.63-0.54,2.57
			c0.13,1.08,1.19,1.93,2.26,1.3c3.37-2,6.49-4.64,8.09-8.3c1.25-2.84,1.44-5.92,1.17-8.98c-0.98,0.13-1.96,0.27-2.95,0.4
			c1.81,4.69,3.1,9.58,3.67,14.58c0.18,1.61,2.42,2.12,2.95,0.4c0.59-1.92,1.01-3.87,1.27-5.86c0.19-1.51-0.12-2.59,1.36-3.34
			c-0.73-0.3-1.47-0.6-2.2-0.9c0.25,0.98-0.93,2.32-1.29,3.2c-0.44,1.07-0.7,2.46,0.39,3.22c1.23,0.87,3.29,0.31,4.66,0.16
			c1.79-0.19,3.58-0.39,5.37-0.6c7.16-0.82,14.31-1.75,21.44-2.78c1.9-0.28,1.09-3.17-0.8-2.89c-6.38,0.92-12.78,1.76-19.19,2.51
			c-3.11,0.36-6.25,0.87-9.38,1.02c-0.2,0.01-0.39,0.02-0.59,0.01c0.24,0.31,0.47,0.62,0.71,0.93c-0.02,0,0.22-0.62,0.25-0.69
			c0.23-0.51,0.55-0.99,0.8-1.49c0.54-1.1,0.82-2.18,0.52-3.4c-0.25-0.99-1.36-1.32-2.2-0.9c-1.65,0.83-2.46,2.07-2.64,3.88
			c-0.24,2.43-0.65,4.77-1.36,7.11c0.98,0.13,1.96,0.27,2.95,0.4c-0.59-5.28-1.86-10.42-3.77-15.38c-0.56-1.44-3.11-1.43-2.95,0.4
			c0.23,2.53,0.2,5.12-0.78,7.51c-1.32,3.2-4.09,5.45-7,7.17c0.75,0.43,1.5,0.86,2.26,1.3c-0.14-1.18,0.79-2.23,0.68-3.46
			c-0.12-1.32-1.04-2.22-2.14-2.83c-0.75-0.42-1.58-0.14-2.05,0.54c-1.82,2.61-5.48,3.95-8.35,4.95c0.63,0.48,1.27,0.96,1.9,1.45
			c-0.05-1.31-0.11-2.62-0.16-3.92c-0.04-1.01-1.29-2.04-2.26-1.3c-1.15,0.89-2.33,1.74-3.63,2.41c-0.75,0.39-1.53,0.7-2.33,0.97
			c-0.4,0.13-0.81,0.25-1.22,0.36c-0.3,0.08-1.3,0.12-1.52,0.3c-0.03,1.23,0.21,1.55,0.7,0.98c0.18-0.13,0.37-0.24,0.57-0.36
			c0.46-0.28,0.94-0.53,1.41-0.78c0.91-0.49,1.83-0.98,2.78-1.41c1.73-0.78,3.56-1.11,5.46-1.05
			C49.06,23.08,49.05,20.08,47.13,20.01L47.13,20.01z"/>
	</g>
</g>
<g>
	<g>
		<path d="M92.24,7.84c2.38,4.68,0.14,9.51-2.83,13.32c-3.15,4.04-7.12,7.44-10.98,10.77c-1.46,1.26,0.67,3.38,2.12,2.12
			C88,27.64,100.52,17.49,94.83,6.33C93.95,4.61,91.36,6.13,92.24,7.84L92.24,7.84z"/>
	</g>
</g>
<g>
	<g>
		<path d="M92.77,7.32c0.52,8.72,4.8,16.44,10.43,22.93c1.27,1.46,3.38-0.67,2.12-2.12c-5.08-5.85-9.08-12.92-9.55-20.8
			C95.66,5.4,92.66,5.38,92.77,7.32L92.77,7.32z"/>
	</g>
</g>
<g>
	<g>
		<path d="M106.85,29.73c1.94-3.61,3.75-7.31,5.51-11.01c1.79-3.75,3.36-7.58,3.84-11.74c0.09-0.81-0.76-1.49-1.5-1.5
			c-0.89-0.01-1.41,0.7-1.5,1.5c-0.45,3.88-2.12,7.53-3.8,11c-1.66,3.43-3.33,6.87-5.14,10.23
			C103.35,29.92,105.94,31.43,106.85,29.73L106.85,29.73z"/>
	</g>
</g>
<g>
	<g>
		<path d="M113.94,6.7c0.81,8.95,1.89,17.8,5.93,25.95c0.86,1.73,3.45,0.21,2.59-1.51c-3.79-7.64-4.76-16.04-5.52-24.43
			C116.77,4.8,113.76,4.78,113.94,6.7L113.94,6.7z"/>
	</g>
</g>
<g>
	<g>
		<path d="M138.6,24.53c-0.43-1.2-1.61-1.66-2.77-1.9c-1.57-0.33-3.21-0.39-4.81-0.22c-2.57,0.27-6.25,1.04-7.58,3.57
			c-1.62,3.1,2.22,4.87,4.64,5.27c3.13,0.51,6.64,0.28,9.56-1.04c1.14-0.52,2.29-1.38,2.56-2.68c0.39-1.85-1.18-3.21-2.56-4.11
			c-1.42-0.92-3.09,1.21-1.82,2.36c2.09,1.88,4.46,3.41,6.93,4.74c1.7,0.91,3.22-1.67,1.51-2.59c-2.25-1.21-4.42-2.56-6.32-4.27
			c-0.61,0.79-1.21,1.57-1.82,2.36c0.4,0.26,0.96,0.81,1.15,0.98c-0.1-0.09,0.1-0.16-0.15,0.05c-0.79,0.68-2.02,0.94-3.02,1.14
			c-2.27,0.46-5.19,0.62-7.34-0.4c-0.76-0.36-0.87-0.4-0.18-0.92c0.84-0.63,1.92-0.96,2.93-1.19c1.26-0.29,2.55-0.4,3.84-0.34
			c0.56,0.02,1.12,0.07,1.68,0.19c0.25,0.05,0.57,0.21,0.82,0.22c0.39,0.01,0.26,0.7-0.15-0.41
			C136.36,27.13,139.26,26.35,138.6,24.53L138.6,24.53z"/>
	</g>
</g>
<g>
	<g>
		<path d="M146.6,29.79c1.5-6.46,2.29-13.1-0.32-19.39c-0.31-0.75-0.99-1.28-1.85-1.05c-0.77,0.21-1.29,1.07-1.05,1.85
			c2.37,7.69,6.99,14.16,13.24,19.2c0.63,0.51,1.51,0.62,2.12,0c0.53-0.53,0.63-1.61,0-2.12c-5.85-4.73-10.24-10.66-12.46-17.88
			c-0.96,0.27-1.93,0.53-2.89,0.8c2.42,5.83,1.71,11.81,0.32,17.79C143.27,30.87,146.17,31.68,146.6,29.79L146.6,29.79z"/>
	</g>
</g>
<g>
	<g>
		<path d="M157.72,31c1.93,0,1.93-3,0-3C155.79,28,155.79,31,157.72,31L157.72,31z"/>
	</g>
</g>
<g>
	<g>
		<path d="M158.83,30.39c2.59-2.07,3.76-4.79,4.08-8.02c0.4-4,0.4-8.06,0.18-12.07c-1,0-2,0-3,0c0.32,3.75,1.17,7.39,2.89,10.76
			c2.1,4.11,5.36,7.41,9.01,10.17c0.65,0.49,1.67,0.1,2.05-0.54c0.46-0.76,0.1-1.57-0.54-2.05c-3.24-2.45-6.07-5.46-7.93-9.09
			c-1.47-2.87-2.2-6.05-2.48-9.24c-0.16-1.9-3.11-1.95-3,0c0.21,3.78,0.19,7.56-0.11,11.33c-0.09,1.11-0.22,2.22-0.61,3.27
			c-0.51,1.39-1.51,2.45-2.65,3.36c-0.64,0.51-0.52,1.59,0,2.12C157.32,31.02,158.2,30.89,158.83,30.39L158.83,30.39z"/>
	</g>
</g>
<g>
	<g>
		<path d="M131.83,20.72c18.39-0.72,36.8-1.22,55.2-1.5c5.22-0.08,10.43-0.14,15.65-0.18c1.93-0.02,1.93-3.02,0-3
			c-18.44,0.15-36.87,0.52-55.3,1.12c-5.19,0.17-10.37,0.36-15.55,0.56C129.9,17.8,129.9,20.8,131.83,20.72L131.83,20.72z"/>
	</g>
</g>
<g>
	<g>
		<path d="M105,30.57c1.93,0,1.93-3,0-3C103.07,27.57,103.07,30.57,105,30.57L105,30.57z"/>
	</g>
</g>
<g>
	<g>
		<path d="M105.18,30.73c1.93,0,1.93-3,0-3C103.25,27.73,103.24,30.73,105.18,30.73L105.18,30.73z"/>
	</g>
</g>
<g>
	<g>
		<path d="M104.82,30.73c1.93,0,1.93-3,0-3C102.89,27.73,102.89,30.73,104.82,30.73L104.82,30.73z"/>
	</g>
</g>
<g>
	<g>
		<path d="M105.53,30.46c1.93,0,1.93-3,0-3C103.6,27.46,103.6,30.46,105.53,30.46L105.53,30.46z"/>
	</g>
</g>
<g>
	<g>
		<path d="M105.53,30.52c1.93,0,1.93-3,0-3C103.6,27.52,103.6,30.52,105.53,30.52L105.53,30.52z"/>
	</g>
</g>
<g>
	<g>
		<path d="M144.5,30.79c1.93,0,1.93-3,0-3C142.57,27.79,142.57,30.79,144.5,30.79L144.5,30.79z"/>
	</g>
</g>
<g>
	<g>
		<path d="M144.5,30.95c1.93,0,1.93-3,0-3C142.57,27.95,142.57,30.95,144.5,30.95L144.5,30.95z"/>
	</g>
</g>
<g>
	<g>
		<path d="M144.15,30.95c1.93,0,1.93-3,0-3C142.22,27.95,142.21,30.95,144.15,30.95L144.15,30.95z"/>
	</g>
</g>
<g>
	<g>
		<path d="M143.79,30.79c1.93,0,1.93-3,0-3C141.86,27.79,141.86,30.79,143.79,30.79L143.79,30.79z"/>
	</g>
</g>
<g>
	<g>
		<path d="M143.97,30.84c1.93,0,1.93-3,0-3C142.04,27.84,142.04,30.84,143.97,30.84L143.97,30.84z"/>
	</g>
</g>
</svg>
